<svg xmlns="http://www.w3.org/2000/svg" width="104" height="56" fill="none"><path fill="#8E8F99" fill-rule="evenodd" d="M50.1136 5.93452h-.1366c-.2099-.01271-.4199-.0178-.6299-.02289h-.4553c-.3972 0-.802.01018-1.2042.03052a.62534.62534 0 0 0-.091 0c-3.6444.20648-7.2149 1.11736-10.5161 2.68277l-.4326.20852V30.9746l1.0119-.3433c.8879-.3052 1.834-.5798 2.813-.8341a34.329 34.329 0 0 1 8.0952-1.0756v2.909c-.3618.0026-.7134.0128-1.065.0306h-.0835c-2.102.1153-4.1878.4355-6.2282.9561-2.5841.647-5.077 1.6184-7.4197 2.8913V7.11189c2.4331-1.41914 5.0537-2.48502 7.784-3.16593A29.79288 29.79288 0 0 1 48.8918 3h.4275c.511.01271 1.0094.0356 1.4774.0712a21.09142 21.09142 0 0 1 3.6554.58233v2.86332a22.62272 22.62272 0 0 0-3.5416-.53401l-.0726-.00618c-.2468-.02105-.4939-.04214-.7243-.04214Zm5.0392 2.92686c.6349.04832 1.2927.07121 1.958.07121a31.46724 31.46724 0 0 0 7.7131-.9892c2.5829-.64943 5.0747-1.62161 7.4172-2.89383V32.9402c-2.4344 1.4183-5.0558 2.4841-7.7865 3.1659a29.9427 29.9427 0 0 1-7.3362.9435 22.4048 22.4048 0 0 1-5.5654-.6561V8.32229c.43.09917.8727.19072 1.323.267.7387.12461 1.5179.21615 2.2768.27209Zm14.1943.21615-1.0119.34075c-.931.31278-1.8695.59252-2.8131.84172a34.2628 34.2628 0 0 1-8.4063 1.0782c-.6602 0-1.2673-.0178-1.8542-.056l-.807-.0534V34.0057l.6931.061c.6426.056 1.3054.0839 1.9732.0839 2.2335-.0094 4.4572-.2973 6.6203-.8569a27.76376 27.76376 0 0 0 5.1733-1.8589l.4326-.2085V9.07753Z" clip-rule="evenodd"/><path fill="#8E8F99" d="M35.7371 45.2124a1.491 1.491 0 0 0-.5147-.3478 1.48616 1.48616 0 0 0-.611-.1074 1.67228 1.67228 0 0 0-.6501.1221 1.50145 1.50145 0 0 0-.506.3331c-.1428.1448-.254.318-.3263.5086a1.6501 1.6501 0 0 0-.1164.6281v3.794c-.009.2673.042.5333.1493.7781.0895.1944.2188.3677.3794.5086.1517.1277.3297.2197.5212.2696.1844.0518.3751.0783.5666.0788.2113.0021.4204-.0431.6122-.1322.1896-.083.3615-.2022.506-.351.1408-.1474.2532-.3198.3313-.5086.0811-.1913.1224-.3972.1215-.6052v-.4246h-.9917v.3382a.87958.87958 0 0 1-.0582.3382.60753.60753 0 0 1-.1442.2136.60454.60454 0 0 1-.2074.1093.69733.69733 0 0 1-.2074.0356.50307.50307 0 0 1-.26-.0388.50656.50656 0 0 1-.2055-.1646.89816.89816 0 0 1-.1315-.5086v-3.5372a1.20711 1.20711 0 0 1 .1214-.567.50693.50693 0 0 1 .2102-.1845.50281.50281 0 0 1 .2755-.0444.52684.52684 0 0 1 .2475.052.5298.5298 0 0 1 .1952.1616c.111.1457.169.3252.1644.5086v.328h.9816v-.3865a1.79022 1.79022 0 0 0-.1215-.6637 1.56069 1.56069 0 0 0-.3314-.534ZM41.6289 45.1691c-.3162-.267-.7153-.4145-1.1282-.417-.202.0008-.4023.037-.592.1068-.1926.069-.3703.1743-.5236.3102a1.5597 1.5597 0 0 0-.3846.5315c-.0999.2317-.149.4824-.1442.7349v3.6389c-.0068.256.0424.5103.1442.7451.0898.1956.221.3692.3846.5085.1516.1408.3296.2497.5236.3205.1897.0698.39.1059.592.1068a1.7138 1.7138 0 0 0 .5919-.1068 1.6563 1.6563 0 0 0 .5363-.3205c.1582-.1419.2856-.315.3744-.5085.1018-.2348.1511-.4891.1442-.7451v-3.6389a1.76985 1.76985 0 0 0-.1442-.7349 1.64111 1.64111 0 0 0-.3744-.5315Zm-.4629 4.9053a.65557.65557 0 0 1-.0392.2857.65317.65317 0 0 1-.1581.2407.7267.7267 0 0 1-.4668.17c-.1706 0-.3357-.0602-.4667-.17a.6507.6507 0 0 1-.1581-.2407.65262.65262 0 0 1-.0392-.2857v-3.6389a.65262.65262 0 0 1 .0392-.2857.64988.64988 0 0 1 .1581-.2407c.131-.1098.2961-.17.4667-.17a.7267.7267 0 0 1 .4668.17.65235.65235 0 0 1 .1581.2407.65557.65557 0 0 1 .0392.2857v3.6389ZM49.3673 51.6994v-6.8887h-.9537l-1.2522 3.6465h-.0177l-1.2624-3.6465h-.9436v6.8887h.9841v-4.1907h.0177l.9638 2.9625h.4908l.9714-2.9625h.0177v4.1907h.9841ZM54.9581 45.2937c-.1516-.17-.3428-.2994-.5566-.3764a2.18377 2.18377 0 0 0-.7134-.1068H52.226v6.8888h.9815v-2.6904h.5059c.3063.0139.611-.0509.8854-.1882.2232-.1239.4093-.3057.5389-.5264.1135-.1832.19-.3872.2251-.6001.0386-.2592.0564-.5212.0531-.7832a3.92308 3.92308 0 0 0-.0961-.9841c-.0655-.2384-.1899-.4563-.3617-.6332Zm-.506 2.1004a.86672.86672 0 0 1-.0911.3586c-.0561.1059-.1448.1907-.2529.2415-.1454.0651-.304.0947-.463.0865h-.4477v-2.342h.5059a.94224.94224 0 0 1 .4427.0864.55623.55623 0 0 1 .2302.2543c.0537.121.0829.2516.086.384v.4577c0 .1602.0101.3255 0 .473h-.0101ZM59.6077 44.8107h-.8045l-1.5178 6.8887h.9815l.2884-1.48h1.3382l.2884 1.48h.9816l-1.5558-6.8887Zm-.9057 4.4704.4832-2.4971h.0177l.4807 2.4971h-.9816ZM65.9497 48.9607h-.0177l-1.4824-4.15h-.9436v6.8887h.9815V47.557h.0203l1.5001 4.1424h.9233v-6.8887h-.9815v4.15ZM71.9476 44.8107l-.7893 2.7387h-.0202l-.7893-2.7387h-1.0397l1.3483 3.9771v2.9116h.9816v-2.9116l1.3483-3.9771h-1.0397ZM33 53.6445h.4731v1.3274h.3212v-1.3274h.4706v-.2721H33v.2721ZM36.9767 53.3724l-.6198 1.5995h.3415l.1316-.3636h.6375l.1366.3636h.3491l-.635-1.5995h-.3415Zm-.0506.9663.2176-.5925.2175.5925h-.4351ZM40.9079 54.3821h.3694v.206a.61284.61284 0 0 1-.3795.1348.40363.40363 0 0 1-.1879-.0349.40557.40557 0 0 1-.1511-.1177.66923.66923 0 0 1-.1189-.417c0-.356.1543-.534.4604-.534a.33736.33736 0 0 1 .2277.0598c.0664.0466.1139.1156.1341.1944l.3162-.061c-.0683-.3128-.2934-.4704-.678-.4704-.2056-.0055-.4056.0682-.559.206a.77921.77921 0 0 0-.1827.2821.78306.78306 0 0 0-.0475.3332.87204.87204 0 0 0 .2049.6002.77557.77557 0 0 0 .278.1839.77316.77316 0 0 0 .3291.05c.2503.007.4934-.0842.678-.2543v-.6306h-.6932v.2695ZM44.9226 53.3724h-.3238v1.5995h1.1206v-.2721h-.7968v-1.3274ZM48.3175 53.3724h-.3238v1.5995h.3238v-1.5995ZM51.6365 54.4405l-.6552-1.0681h-.3137v1.5995h.301v-1.0451l.6426 1.0451h.3213v-1.5995h-.296v1.0681ZM54.6368 54.2675h.7969v-.2721h-.7969v-.3509h.8576v-.2721H54.313v1.5995h1.2143v-.2721h-.8905v-.4323ZM61.9122 54.0031h-.6299v-.6307h-.3212v1.5995h.3212v-.6993h.6299v.6993h.3213v-1.5995h-.3213v.6307ZM64.9302 54.2675h.7994v-.2721h-.7994v-.3509h.8601v-.2721h-1.1814v1.5995h1.2117v-.2721h-.8904v-.4323ZM69.0233 54.2676c.2782-.0432.4199-.1907.4199-.445a.38278.38278 0 0 0-.0298-.1996.38042.38042 0 0 0-.1271-.1564.90378.90378 0 0 0-.468-.0941h-.6779v1.5995h.3213v-.6688h.0632c.0685-.0042.137.008.1998.0356.047.029.0861.0691.1139.117l.3491.5086h.3845l-.1948-.3128a1.1151 1.1151 0 0 0-.3541-.384Zm-.3239-.2212h-.2377v-.4018h.2529a.83986.83986 0 0 1 .3264.0381.2093.2093 0 0 1 .054.0752c.0122.0288.0177.06.0163.0913a.20987.20987 0 0 1-.0247.0893.20798.20798 0 0 1-.0608.0697.9127.9127 0 0 1-.3264.0382ZM72.1096 54.2675h.7968v-.2721h-.7968v-.3509h.8601v-.2721h-1.1839v1.5995H73v-.2721h-.8904v-.4323Z"/></svg>