<svg xmlns="http://www.w3.org/2000/svg" width="104" height="56" fill="none"><path fill="#8E8F99" d="M53.5293 27.4433c-.444-.5909-.6564-1.2891-.606-1.992v-2.8881c0-.8853.2009-1.5581.6026-2.0184.4018-.4603 1.0918-.6894 2.0701-.6875.9193 0 1.5719.1959 1.9577.5876.4209.4998.6257 1.1111.5788 1.7276v.6787H56.488v-.6875a3.49728 3.49728 0 0 0-.0476-.6728c-.0237-.1523-.1065-.2932-.2349-.3996-.1689-.1147-.3816-.1703-.5959-.1557-.2253-.0145-.4487.0441-.6264.1645-.1433.1179-.2388.2724-.2724.4407a3.3415 3.3415 0 0 0-.0647.7139v3.5051c-.0259.3381.0466.6765.2111.9842.0818.1042.1954.1867.3282.2386.1328.0518.2796.071.4242.0552.2107.015.4197-.042.5822-.1586.134-.1148.2202-.2645.2452-.426.0384-.2326.0555-.4674.051-.7022v-.711h1.6445v.6493c.0462.6426-.1536 1.2806-.5686 1.8157-.3779.4289-1.0214.6434-1.9679.6434-.9465 0-1.6615-.2291-2.0667-.7051ZM60.3763 27.4727c-.4153-.4495-.623-1.1047-.623-1.9714v-3.038c0-.8579.2077-1.5072.623-1.9479.4154-.4407 1.11-.66 2.0837-.6581.9669 0 1.6581.2194 2.0734.6581.4154.4407.6265 1.09.6265 1.9479v3.038c0 .8579-.2111 1.516-.6333 1.9684-.4222.4525-1.1099.6787-2.0666.6787-.9567 0-1.6649-.2291-2.0837-.6757Zm2.8497-.7287c.1488-.2815.2165-.59.1975-.899v-3.7195c.0191-.3031-.0475-.6056-.1941-.8814-.0834-.1064-.1998-.1903-.3358-.2422-.1361-.052-.2863-.0699-.4336-.0516-.1477-.0178-.2983.0003-.4348.0522s-.2535.1355-.3381.2416c-.1497.275-.2176.578-.1974.8814v3.7371c-.0207.3092.0471.6179.1974.8991.0959.0947.2142.1707.3469.2228.1327.052.2768.0789.4226.0789.1458 0 .2899-.0269.4226-.0789.1327-.0521.251-.1281.3468-.2228v-.0177ZM67.1378 19.946h1.7705l1.3312 5.6052 1.3619-5.6052h1.7228l.1736 8.0905h-1.2734l-.1361-5.6228-1.3143 5.6228h-1.0214l-1.3619-5.6434-.1259 5.6434h-1.287l.16-8.0905ZM75.4829 19.946h2.7577c1.5889 0 2.3833.7658 2.3833 2.2973 0 1.4669-.8364 2.1994-2.5092 2.1974h-.9397v3.5958h-1.7023l.0102-8.0905Zm2.356 3.4577c.1682.0184.339.0051.5007-.039.1616-.0441.3103-.118.4356-.2166.1952-.2732.2813-.5941.2451-.9136.0089-.2468-.0185-.4936-.0817-.7344-.0243-.0805-.0669-.1559-.1253-.222-.0585-.0661-.1316-.1214-.2152-.1629-.2363-.0978-.4975-.1422-.7592-.1292h-.6605v2.4177h.6605ZM83.0787 19.946h1.8283l1.876 8.0905h-1.5866l-.3711-1.8655h-1.6308l-.3813 1.8655h-1.6104l1.8759-8.0905Zm1.5628 5.2879-.6367-3.396-.6367 3.396h1.2734ZM88.2981 19.946h1.1916l2.2812 4.6152V19.946h1.4129v8.0905h-1.1337l-2.2948-4.8179v4.8179h-1.4606l.0034-8.0905ZM96.4932 24.9516l-1.8964-4.9943h1.5968l1.1576 3.2081 1.0861-3.2081H100l-1.8726 4.9943v3.0847h-1.6342v-3.0847ZM56.1579 31.5736v.4231h-1.3891v3.2875h-.5822v-3.2875h-1.396v-.4231h3.3673ZM60.5123 35.2844h-.4494c-.0456.0025-.0907-.0101-.126-.0352-.034-.0215-.06-.0511-.0749-.0852l-.4017-.8813h-1.9271l-.4018.8813c-.0114.0369-.0323.071-.0612.0999-.0357.0246-.0805.0371-.126.0352h-.4494l1.7023-3.7104h.5924l1.7228 3.6957Zm-2.8191-1.3778h1.6071l-.681-1.51a2.70326 2.70326 0 0 1-.126-.3496c-.0238.0705-.0442.1381-.0647.1969l-.0612.1557-.6742 1.507ZM63.4472 34.9202c.1066.0048.2134.0048.32 0a1.9257 1.9257 0 0 0 .2724-.0441c.0834-.0177.1653-.0402.2452-.0676.0749-.0264.1498-.0587.2281-.0911v-.8344h-.681a.14232.14232 0 0 1-.0495-.0064.12803.12803 0 0 1-.0424-.023.08636.08636 0 0 1-.0259-.0304.0746.0746 0 0 1-.0081-.0372v-.285h1.321v1.4221c-.1078.0666-.2217.1255-.3405.1763-.1214.0517-.2479.094-.3779.1263a3.05369 3.05369 0 0 1-.4256.0764c-.1651.0158-.331.0237-.4971.0235-.2936.0022-.585-.0447-.858-.1381-.2549-.0884-.4865-.2203-.6809-.3878-.1896-.1692-.3388-.3688-.4392-.5876-.1073-.246-.1604-.5071-.1566-.7698-.0036-.2645.0483-.5272.1532-.7757.0979-.2199.2474-.42.4392-.5876.1943-.167.426-.2979.6809-.3849.2916-.0947.601-.1415.9125-.1381a3.4149 3.4149 0 0 1 .4732.0323c.1384.0194.2742.0509.4052.094.1191.0386.2332.0878.3405.1469.1043.058.2034.1228.2962.1939l-.1634.2292c-.0128.0209-.0319.0385-.0553.0509-.0233.0124-.0501.0192-.0775.0196-.0377-.001-.0743-.0112-.1056-.0294-.051-.0235-.1055-.0528-.1668-.0881a1.51033 1.51033 0 0 0-.2281-.0999 2.13724 2.13724 0 0 0-.3133-.0823 2.62531 2.62531 0 0 0-.4324-.0323c-.2246-.0021-.4476.0328-.6571.1028-.1894.0656-.3602.1659-.5004.2939-.1411.1334-.2489.2904-.3167.4613-.1521.4018-.1521.835 0 1.2369.0745.1745.1905.3337.3405.4672.1396.1273.3091.2275.4971.2938.2165.0641.4459.0892.6741.0735ZM68.8744 34.8611h1.859v.4231h-2.4276v-3.7106h.5822l-.0136 3.2875ZM72.6672 35.2842h-.5822v-3.7106h.5822v3.7106ZM74.8325 31.5913c.0346.017.0648.04.0886.0676l2.4887 2.797a.8839.8839 0 0 1 0-.1322V31.559h.5073v3.7255h-.2928c-.0433.003-.0869-.0041-.1259-.0206-.0354-.0185-.0665-.0424-.092-.0705l-2.4853-2.7941V35.2845h-.4869v-3.7108h.303c.0329 0 .0653.006.0953.0176ZM82.2037 31.5736v.4084h-2.0632v1.2251h1.6717v.3937h-1.6717v1.2663h2.0632v.4083h-2.6624v-3.7018h2.6624ZM21.1952 8.65871 47.047 14.9927v22.1956l-25.8518-6.3311V8.65871Zm-1.6581-1.89199V31.9354l29.1646 7.1478V13.9175L19.5371 6.76672Z"/><path fill="#8E8F99" d="M35.168 50.7667 6 43.6129v-25.166l29.168 7.1508v25.169Z"/><path fill="#8E8F99" d="m20.0205 8.37371 25.5147 6.25459-10.8507 9.3658-25.51814-6.2576L20.0205 8.37371Zm-.4835-1.60699L6 18.4475l29.168 7.1506 13.5336-11.6807L19.537 6.76672ZM36.8091 49.3509l11.8925-10.2646-11.8925-2.9172v13.1818Z"/></svg>