<svg xmlns="http://www.w3.org/2000/svg" width="104" height="56" fill="none"><path fill="#8E8F99" d="M26.7919 44.373c.2455.2735.3762.6161.3694.9677.0125.2293-.0325.4582-.1315.6698-.0991.2116-.2498.4004-.4409.5525-.4769.3242-1.0676.4827-1.6639.4463H22v-6.1324h2.8651c.5656-.0338 1.1267.1102 1.5874.4075.185.1394.3315.3156.428.5147.0964.1991.1401.4157.1277.6326.0168.3383-.1012.6709-.3328.9377-.2223.2437-.5295.4126-.8718.4794.388.0637.7383.2495.9883.5242Zm-3.4309-.9257h1.2246c.2783.0186.5548-.0538.7787-.2037.092-.075.1635-.1681.2091-.272.0456-.1039.064-.2158.0538-.3271.0086-.111-.0102-.2223-.055-.3259-.0449-.1036-.1148-.1969-.2046-.2733-.2306-.1542-.5156-.2276-.8019-.2067H23.361v1.6087Zm2.1231 2.3517c.0983-.0768.1755-.1729.2258-.281.0502-.1081.072-.2252.0637-.3421.0075-.1183-.0153-.2365-.0667-.3456-.0513-.1091-.1298-.2061-.2295-.2835-.2395-.1599-.5342-.2384-.8319-.2217H23.361v1.6866h1.3012c.2928.0152.5827-.0598.8219-.2127ZM32.6487 47.0093l-1.594-2.3966h-.599v2.3966h-1.371v-6.1324h2.5956c.6543-.0411 1.3011.1455 1.807.5213.3628.3328.5816.7714.617 1.2366.0354.4653-.115.9266-.424 1.3009-.3203.3302-.7577.5504-1.2379.6231l1.6971 2.4505h-1.4908Zm-2.193-3.2324h1.1215c.7786 0 1.168-.3096 1.168-.9287.0079-.1265-.0134-.253-.0627-.3716-.0492-.1186-.1254-.2267-.2235-.3175-.2461-.1842-.563-.2736-.8818-.2486h-1.1348l.0133 1.8664ZM40.1426 45.7752h-2.732l-.4826 1.2342h-1.4375l2.5091-6.0635h1.554l2.4991 6.0635h-1.4376l-.4725-1.2342Zm-.366-.9287-.9984-2.5884-.9983 2.5884h1.9967ZM49.5234 47.0094h-1.361l-3.0515-4.1702v4.1702h-1.3577V40.877h1.3577l3.0515 4.1941V40.877h1.361v6.1324ZM57.2903 45.5415c-.2814.463-.7102.8396-1.2313 1.0814-.5924.2694-1.2499.4022-1.9134.3865H51.723V40.877h2.4226c.6623-.0156 1.319.114 1.9134.3775.521.2363.9502.6092 1.2313 1.0695.2801.4987.4261 1.0498.4261 1.6087s-.146 1.11-.4261 1.6088Zm-1.5574-.1468c.3884-.4074.602-.9266.602-1.4635s-.2136-1.056-.602-1.4634c-.4695-.369-1.0818-.5564-1.7038-.5213h-.945v3.9694h.945c.622.0351 1.2343-.1522 1.7038-.5212ZM40.9945 6.76672S58.5614 12.7374 58.1887 21.3773v14.6135s-17.5536-5.9736-17.1875-14.6135l-.0067-14.61058ZM73.8389 32.5694c3.3176-2.0555 7.1552-3.3286 11.1611-3.7028V24.292c-4.6158 1.6015-8.5314 4.5055-11.1611 8.2774Z"/><path fill="#8E8F99" d="M71.8456 33.9478c2.7155-4.9225 7.423-8.721 13.1544-10.6142V10.1521s-25.0177 8.5051-24.4886 20.8088v20.8059s1.1148-.3805 2.8685-1.0935c0-.665 0-1.3361.0799-2.0102.5178-5.712 3.5341-11.005 8.3858-14.7153Z"/><path fill="#8E8F99" d="M69.4663 41.6769c.1315-1.4429.4247-2.8702.8752-4.26-3.021 3.2042-4.8505 7.1802-5.2311 11.369-.0366.3955-.0566.7909-.0666 1.1984 1.421-.6142 3.0748-1.3811 4.8119-2.2828-.4433-1.9818-.5744-4.0099-.3894-6.0246ZM70.4612 41.7519c-.1665 1.8227-.0624 3.6573.3095 5.4553 6.8351-3.6818 14.5154-9.3709 14.2193-16.2462v-.5992c-4.8834.4919-9.4523 2.4138-13.0047 5.4704-.8317 1.8941-1.3454 3.8892-1.5241 5.9197Z"/></svg>